The Hittites 2003 HDTV DivX-Atilla82

documentary



Hittites (2003) 
Hititler (original title)



 
http://www.imdb.com/title/tt0366578/


Jeremy Irons	 ...	Narrator


A documentary about the rise and fall of the Hittite empire, 
which existed about 3500 years ago in what is now central Turkey.



Source: The Hittites x264 720p AC3 HDTV-MVGroup



General
Complete name : The.Hittites.2003.HDTV.DivX-Atilla82.avi
Format : AVI
Format/Info : Audio Video Interleave
File size : 1.04 GiB
Duration : 1h 58mn
Overall bit rate : 1 250 Kbps
Writing application : VirtualDubMod 1.5.10.2 (build 2540/release)
Writing library : VirtualDubMod build 2540/release

Video
ID : 0
Format : MPEG-4 Visual
Format settings, BVOP : 1
Format settings, QPel : No
Format settings, GMC : No warppoints
Format settings, Matrix : Default (H.263)
Muxing mode : Packed bitstream
Codec ID : DX50
Codec ID/Hint : DivX 5
Duration : 1h 58mn
Bit rate : 1 049 Kbps
Width : 720 pixels
Height : 406 pixels
Display aspect ratio : 16:9
Frame rate : 25.000 fps
Color space : YUV
Chroma subsampling : 4:2:0
Bit depth : 8 bits
Scan type : Progressive
Compression mode : Lossy
Bits/(Pixel*Frame) : 0.143
Stream size : 892 MiB (84%)
Writing library : DivX 2682

Audio
ID : 1
Format : MPEG Audio
Format version : Version 1
Format profile : Layer 3
Mode : Joint stereo
Mode extension : MS Stereo
Codec ID : 55
Codec ID/Hint : MP3
Duration : 1h 58mn
Bit rate mode : Constant
Bit rate : 192 Kbps
Channel(s) : 2 channels
Sampling rate : 48.0 KHz
Compression mode : Lossy
Stream size : 163 MiB (15%)
Alignment : Aligned on interleaves
Interleave, duration : 40 ms (1.00 video frame)
Interleave, preload duration : 504 ms


SCREENSHOTS 
http://www.pohrani.com/f/2u/gV/2Dh7Cn5Z/screenshots.jpg

